<svg id="svg" xmlns="http://www.w3.org/2000/svg" xmlns:xlink="http://www.w3.org/1999/xlink" width="400" height="400" viewBox="0, 0, 400,400"><g id="svgg"><path id="path0" d="M194.372 7.079 C 188.335 7.984,184.329 10.680,181.464 15.762 C 175.106 27.044,157.289 61.541,138.562 98.828 C 129.714 116.445,119.573 136.484,116.027 143.359 C 112.480 150.234,96.488 181.875,80.488 213.672 C 64.487 245.469,40.515 293.105,27.216 319.531 C -1.568 376.725,-1.593 376.815,8.080 387.309 C 14.265 394.019,12.393 393.750,52.847 393.750 C 99.015 393.750,94.617 395.692,107.709 369.531 C 111.902 361.152,134.364 316.424,157.625 270.136 L 199.917 185.974 209.050 204.511 C 223.648 234.139,243.019 272.852,255.069 296.484 C 261.204 308.516,273.851 333.477,283.173 351.953 C 300.878 387.046,302.701 390.128,307.087 392.408 C 310.661 394.266,380.215 394.047,385.479 392.161 C 392.433 389.670,397.214 381.899,397.239 373.047 L 397.254 367.578 379.258 331.641 C 345.017 263.262,267.140 108.947,257.035 89.453 C 247.120 70.326,237.957 52.733,233.627 44.513 C 231.246 39.991,226.844 31.614,223.847 25.896 C 214.829 8.695,208.886 4.901,194.372 7.079 M219.531 80.873 C 219.531 81.407,210.616 99.552,199.720 121.195 C 188.824 142.839,164.784 190.605,146.297 227.344 C 89.019 341.173,78.776 361.276,77.233 362.891 C 75.746 364.448,37.500 365.917,37.500 364.417 C 37.500 363.881,44.628 349.639,61.125 317.216 C 66.692 306.274,82.504 274.985,96.262 247.684 C 119.793 200.995,132.441 176.049,153.716 134.375 C 170.976 100.565,179.922 83.117,185.561 72.266 C 188.686 66.250,193.250 57.461,195.702 52.734 C 198.155 48.008,200.364 43.808,200.611 43.403 C 201.081 42.633,219.531 79.173,219.531 80.873 M300.775 241.561 C 334.294 308.462,361.719 363.570,361.719 364.022 C 361.719 364.575,355.345 364.844,342.233 364.844 L 322.747 364.844 315.956 351.367 C 307.793 335.170,286.500 293.151,269.337 259.375 C 257.462 236.005,249.951 221.302,226.033 174.609 L 215.629 154.297 223.025 139.844 C 227.093 131.895,231.750 122.857,233.375 119.760 L 236.328 114.129 238.080 117.026 C 239.044 118.619,267.257 174.659,300.775 241.561 " stroke="none" fill="#000000" fill-rule="evenodd"></path></g></svg>